#!OML:ASF E:\emotionWalksFemale\Project 1\Capture day 1\Session 1\Female1.ASF
:FULLY-SPECIFIED
:DEGREES
1656
root 8.31939 15.0533 39.2342 172.552 -179.571 -180.906
lowerback 5.83929 2.06881 -0.238048
upperback -1.90745 2.62725 -2.3445
thorax -5.15549 1.26805 -2.5683
lowerneck 0.848672 -2.14336 -12.2118
upperneck 27.7868 -3.92515 7.82714
head 8.9077 -2.38387 4.54011
rclavicle -2.5842e-015 7.95139e-015
rhumerus -52.6412 -9.1028 -34.5784
rradius 33.4772
rwrist 21.113
rhand -1.75185 303.196
rfingers 7.12502
rthumb 23.9114 -805.335
lclavicle -2.5842e-015 7.95139e-015
lhumerus -29.954 -16.2756 83.6484
lradius 58.8717
lwrist -2.94784
lhand -2.31146 -36.7429
lfingers 7.12502
lthumb 23.3746 -8.14231
rfemur -4.16201 8.20637 23.9447
rtibia 31.0345
rfoot -14.9812 -26.0828
rtoes -3.53518
lfemur -7.57825 -19.1544 -21.3626
ltibia 34.7638
lfoot -20.6501 10.9207
ltoes -33.301
1657
root 8.31667 15.0528 39.266 172.516 -178.855 -181.261
lowerback 5.98971 2.16714 0.337846
upperback -1.88387 2.81821 -2.04595
thorax -5.19542 1.34863 -2.60572
lowerneck 0.879493 -2.03157 -12.199
upperneck 27.8414 -3.70835 7.55768
head 8.8955 -2.3052 4.45984
rclavicle 1.2921e-014 1.11319e-014
rhumerus -51.4772 -8.57441 -34.7249
rradius 33.972
rwrist 20.2399
rhand -3.00076 302.671
rfingers 7.12502
rthumb 22.7132 -806.012
lclavicle 1.2921e-014 1.11319e-014
lhumerus -29.4264 -14.6954 83.3851
lradius 58.2927
lwrist -3.50025
lhand -2.06219 -36.2173
lfingers 7.12502
lthumb 23.6137 -7.64731
rfemur -3.58111 8.89352 24.4634
rtibia 30.0516
rfoot -15.5865 -25.8303
rtoes -5.64377
lfemur -7.52607 -18.7586 -20.9674
ltibia 35.3328
lfoot -21.1908 11.4825
ltoes -34.2151
1658
root 8.30872 15.0511 39.292 172.613 -178.479 -181.448
lowerback 6.15456 2.12913 0.540183
upperback -1.967 2.79789 -1.73724
thorax -5.38256 1.33419 -2.40664
lowerneck 0.921898 -1.90837 -12.3356
upperneck 27.9754 -3.50556 7.43326
head 8.91613 -2.23798 4.45834
rclavicle 1.93815e-014 -1.27222e-014
rhumerus -50.1625 -8.08467 -34.8644
rradius 34.4298
rwrist 19.4838
rhand -4.08503 302.431
rfingers 7.12502
rthumb 21.6723 -806.376
lclavicle 1.93815e-014 -1.27222e-014
lhumerus -29.1944 -12.7023 83.1402
lradius 57.8741
lwrist -4.2199
lhand -1.79775 -35.837
lfingers 7.12502
lthumb 23.8674 -7.2999
rfemur -3.18205 9.45114 24.7948
rtibia 29.2783
rfoot -16.1804 -25.8184
rtoes -5.13803
lfemur -7.60987 -18.5245 -20.6979
ltibia 35.713
lfoot -21.5967 11.7357
ltoes -32.5491
1659
root 8.29678 15.0596 39.3175 172.672 -178.237 -181.453
lowerback 6.14303 2.11614 0.69868
upperback -1.8962 2.80057 -1.61441
thorax -5.30015 1.33387 -2.36504
lowerneck 0.784454 -1.8408 -12.2431
upperneck 28.0166 -3.40898 7.4548
head 8.94175 -2.17907 4.45761
rclavicle -1.2921e-015 3.97569e-015
rhumerus -48.9335 -8.13223 -35.0681
rradius 34.97
rwrist 18.7474
rhand -4.96053 302.334
rfingers 7.12502
rthumb 20.8313 -806.568
lclavicle -1.2921e-015 3.97569e-015
lhumerus -28.7251 -10.9544 82.8135
lradius 57.207
lwrist -4.7507
lhand -1.92526 -35.6067
lfingers 7.12502
lthumb 23.7451 -7.05368
rfemur -2.91836 10.0304 24.9566
rtibia 28.9522
rfoot -16.1687 -26.0381
rtoes -4.9948
lfemur -7.45094 -18.4115 -20.6425
ltibia 35.65
lfoot -21.7423 11.8291
ltoes -26.4885
1660
root 8.28965 15.0667 39.3544 172.686 -177.777 -181.316
lowerback 6.27716 2.13541 0.670936
upperback -1.97446 2.83291 -1.43115
thorax -5.46753 1.35123 -2.17127
lowerneck 0.587001 -1.73321 -11.7518
upperneck 28.5553 -3.08994 6.65069
head 9.12316 -2.05811 4.12226
rclavicle 2.09718e-014 -7.15625e-015
rhumerus -47.8138 -7.69336 -35.3372
rradius 35.7416
rwrist 17.7685
rhand -5.60863 301.742
rfingers 7.12502
rthumb 20.2085 -807.227
lclavicle 2.09718e-014 -7.15625e-015
lhumerus -28.741 -9.06667 82.628
lradius 56.4047
lwrist -5.26292
lhand -2.38463 -35.4594
lfingers 7.12502
lthumb 23.3044 -6.84992
rfemur -2.70209 10.5471 24.9714
rtibia 28.8014
rfoot -15.6372 -26.2179
rtoes -6.93729
lfemur -7.06691 -18.4849 -20.8518
ltibia 35.4583
lfoot -21.8593 12.346
ltoes -31.0874
